<svg width="45" height="46" viewBox="0 0 45 46" fill="none" xmlns="http://www.w3.org/2000/svg">
<circle cx="22.5" cy="23.0928" r="22.5" fill="#DDF7EC"/>
<path d="M25.5 21.0928C25.5 22.7496 24.1569 24.0928 22.5 24.0928C20.8431 24.0928 19.5 22.7496 19.5 21.0928C19.5 19.4359 20.8431 18.0928 22.5 18.0928C24.1569 18.0928 25.5 19.4359 25.5 21.0928Z" fill="#2BBEB8"/>
<path fill-rule="evenodd" clip-rule="evenodd" d="M14.5 23.0928C14.5 18.6745 18.0817 15.0928 22.5 15.0928C26.9183 15.0928 30.5 18.6745 30.5 23.0928C30.5 27.5111 26.9183 31.0928 22.5 31.0928C18.0817 31.0928 14.5 27.5111 14.5 23.0928ZM22.5 16.0928C18.634 16.0928 15.5 19.2268 15.5 23.0928C15.5 24.7462 16.0733 26.2657 17.0319 27.4635C17.7429 26.318 19.3046 25.0928 22.5 25.0928C25.6954 25.0928 27.2571 26.318 27.9681 27.4635C28.9267 26.2657 29.5 24.7462 29.5 23.0928C29.5 19.2268 26.366 16.0928 22.5 16.0928Z" fill="#2BBEB8"/>
</svg>
